<svg width="62" height="61" viewBox="0 0 62 61" fill="none" xmlns="http://www.w3.org/2000/svg">
<path d="M31 0C13.875 0 0 13.6512 0 30.5C0 47.3488 13.875 61 31 61C48.125 61 62 47.3488 62 30.5C62 13.6512 48.125 0 31 0ZM49 33.9436C49 34.7552 48.325 35.4194 47.5 35.4194H36V46.7339C36 47.5456 35.325 48.2097 34.5 48.2097H27.5C26.675 48.2097 26 47.5456 26 46.7339V35.4194H14.5C13.675 35.4194 13 34.7552 13 33.9436V27.0565C13 26.2448 13.675 25.5806 14.5 25.5806H26V14.2661C26 13.4544 26.675 12.7903 27.5 12.7903H34.5C35.325 12.7903 36 13.4544 36 14.2661V25.5806H47.5C48.325 25.5806 49 26.2448 49 27.0565V33.9436Z" fill="black"/>
</svg>
