<svg width="418" height="234" viewBox="0 0 418 234" fill="none" xmlns="http://www.w3.org/2000/svg">
<path d="M209 1.38559C209.672 1.38559 210.253 1.04957 210.81 0.727054C211.527 0.312274 212.212 -0.0846771 213.127 0.0193043C218.203 0.596529 221.756 2.27364 224.111 4.66803C226.8 7.40238 227.906 11.0436 227.92 15.0379C227.945 15.0586 227.968 15.0815 227.989 15.1063C231.047 16.3593 233.226 18.2586 234.689 20.5958C236.388 23.3099 237.107 26.595 237.107 30.1281C237.107 31.3036 237.028 32.4515 236.859 33.56C236.864 33.59 236.867 33.6209 236.866 33.6524C236.866 33.7435 236.843 33.8292 236.803 33.9044C236.446 36.0057 235.76 37.9587 234.678 39.6806C233.201 42.0316 230.995 43.9386 227.893 45.1884C227.898 45.2961 227.902 45.4073 227.906 45.5218C227.915 45.8076 227.92 46.056 227.92 46.2678C227.92 50.1968 227.033 53.8036 224.763 56.6046C222.495 59.4032 218.868 61.3691 213.396 62.0071C212.452 62.1172 211.705 61.6138 210.932 61.0924C210.328 60.6853 209.704 60.2644 209.054 60.2644C208.379 60.2644 207.713 60.7125 207.091 61.1311C206.349 61.6305 205.656 62.0966 204.846 62.0005C199.768 61.3986 196.22 59.6488 193.87 57.1502C191.175 54.2836 190.08 50.4601 190.08 46.2678C190.08 46.056 190.085 45.8076 190.094 45.5218C190.096 45.4662 190.097 45.4114 190.1 45.3574C190.094 45.3524 190.089 45.3473 190.084 45.342C190.023 45.279 189.98 45.205 189.955 45.1265C186.933 43.876 184.775 41.9931 183.322 39.6806C181.615 36.9635 180.893 33.6707 180.893 30.1281C180.893 26.595 181.611 23.3099 183.31 20.5958C184.785 18.2409 186.986 16.3304 190.08 15.0777C190.086 11.0638 191.193 7.40419 193.897 4.66012C196.256 2.26513 199.817 0.589162 204.903 0.0159758C205.802 -0.0853866 206.491 0.312643 207.208 0.727586C207.766 1.05016 208.347 1.38559 209 1.38559ZM199.147 35.757C199.363 35.5475 199.707 35.5523 199.917 35.7677C200.126 35.9831 200.121 36.3276 199.906 36.5371L195.384 40.929C195.36 40.9674 195.332 41.0036 195.298 41.0364L191.206 45.0101C191.195 45.2015 191.186 45.3835 191.181 45.5559C191.174 45.7532 191.171 45.9909 191.171 46.2678C191.171 50.1978 192.18 53.7633 194.663 56.4042C195.648 57.4522 196.869 58.3591 198.356 59.0907L202.207 55.3082C202.421 55.0975 202.766 55.1004 202.976 55.3146C203.187 55.5288 203.184 55.8733 202.97 56.084L199.423 59.5672C201.002 60.2042 202.843 60.6652 204.973 60.9178C205.387 60.9668 205.917 60.6099 206.486 60.2274C207.086 59.8239 207.719 59.3979 208.454 59.2384V41.6349L202.644 47.5943L202.635 47.6028C202.583 47.6548 202.575 47.6624 202.575 47.6625C202.63 47.7183 202.701 47.787 202.783 47.8665C202.861 47.9415 202.948 48.0263 203.052 48.1295L205.839 50.8087C206.056 51.0171 206.063 51.3616 205.854 51.5781C205.646 51.7947 205.301 51.8014 205.085 51.5931L202.298 48.9138L202.291 48.9074C202.196 48.8132 202.105 48.7247 202.024 48.6465C201.939 48.5642 201.866 48.4931 201.799 48.4255L201.796 48.422L198.668 51.5382C198.455 51.7501 198.11 51.7491 197.898 51.5361C197.686 51.323 197.687 50.9785 197.9 50.7667L201.902 46.7807C201.927 46.7562 201.953 46.7345 201.981 46.7157L208.454 40.0761V31.2609L203.792 35.7168C203.574 35.9239 203.229 35.9153 203.022 35.6976C202.815 35.4798 202.824 35.1353 203.041 34.9282L208.29 29.9125L205.12 26.8451C204.905 26.6356 204.9 26.2911 205.109 26.0757C205.319 25.8603 205.663 25.8555 205.879 26.065L209.292 29.3674L211.937 29.3571C212.034 29.0373 212.209 28.7512 212.439 28.5209C212.802 28.1576 213.304 27.9329 213.858 27.9329C214.412 27.9329 214.914 28.1576 215.278 28.5209C215.641 28.8841 215.866 29.386 215.866 29.9402C215.866 30.4944 215.641 30.9962 215.278 31.3595C214.914 31.7228 214.412 31.9475 213.858 31.9475C213.304 31.9475 212.802 31.7228 212.439 31.3595C212.19 31.1103 212.006 30.796 211.915 30.4442L209.546 30.4534V44.3021L217.423 44.3142C217.517 43.9786 217.697 43.6785 217.936 43.4388C218.3 43.0756 218.801 42.8509 219.356 42.8509C219.91 42.8509 220.412 43.0756 220.775 43.4388C221.138 43.8021 221.363 44.3039 221.363 44.8581C221.363 45.4124 221.138 45.9142 220.775 46.2775C220.412 46.6407 219.91 46.8654 219.356 46.8654C218.801 46.8654 218.3 46.6407 217.936 46.2775C217.696 46.0375 217.517 45.7372 217.423 45.4012L209.546 45.3891V59.2168C210.3 59.3514 210.929 59.7758 211.542 60.1888C212.145 60.5954 212.727 60.988 213.273 60.9243C213.83 60.8593 214.367 60.78 214.884 60.6871V55.8198C214.555 55.7244 214.26 55.5468 214.024 55.3107C213.661 54.9475 213.436 54.4456 213.436 53.8914C213.436 53.3372 213.661 52.8354 214.024 52.4721C214.387 52.1088 214.889 51.8841 215.443 51.8841C215.997 51.8841 216.499 52.1088 216.862 52.4721C217.226 52.8354 217.45 53.3372 217.45 53.8914C217.45 54.4456 217.226 54.9475 216.862 55.3107C216.62 55.5532 216.316 55.7339 215.975 55.8273V60.4641C219.651 59.618 222.215 58.0211 223.919 55.9184C226.011 53.3367 226.829 49.9643 226.829 46.2678C226.829 45.9909 226.826 45.7532 226.819 45.5559C226.815 45.411 226.808 45.2595 226.799 45.1012L220.28 38.2735C220.011 38.4075 219.708 38.4829 219.387 38.4829C218.832 38.4829 218.33 38.2582 217.967 37.895C217.604 37.5317 217.379 37.0299 217.379 36.4756C217.379 35.9214 217.604 35.4196 217.967 35.0563C218.33 34.6931 218.832 34.4684 219.387 34.4684C219.941 34.4684 220.443 34.6931 220.806 35.0563C221.169 35.4196 221.394 35.9214 221.394 36.4756C221.394 36.8676 221.281 37.2334 221.087 37.5425L227.441 44.1971C230.34 43.0388 232.392 41.2741 233.758 39.1009C234.678 37.635 235.291 35.9775 235.643 34.1898L230.053 34.157C229.962 34.5085 229.778 34.8225 229.529 35.0715C229.166 35.4348 228.664 35.6595 228.11 35.6595C227.556 35.6595 227.054 35.4348 226.69 35.0715C226.327 34.7082 226.102 34.2064 226.102 33.6522C226.102 33.098 226.327 32.5961 226.69 32.2329C227.054 31.8696 227.556 31.6449 228.11 31.6449C228.664 31.6449 229.166 31.8696 229.529 32.2329C229.76 32.4634 229.934 32.7498 230.031 33.0699L235.823 33.1038C235.954 32.1413 236.016 31.1465 236.016 30.1281C236.016 28.2501 235.805 26.4522 235.341 24.7899H226.95C226.855 25.1195 226.677 25.4141 226.441 25.6503C226.078 26.0135 225.576 26.2382 225.022 26.2382C224.468 26.2382 223.966 26.0135 223.603 25.6503C223.239 25.287 223.015 24.7852 223.015 24.231C223.015 23.6767 223.239 23.1749 223.603 22.8116C223.966 22.4484 224.468 22.2237 225.022 22.2237C225.576 22.2237 226.078 22.4484 226.441 22.8116C226.684 23.0541 226.864 23.3584 226.958 23.6987H234.992C234.668 22.807 234.263 21.9613 233.769 21.1712C232.383 18.9582 230.285 17.167 227.304 16.0061H218.65C218.554 16.3357 218.377 16.6304 218.14 16.8665C217.777 17.2297 217.275 17.4544 216.721 17.4544C216.167 17.4544 215.665 17.2297 215.302 16.8665C214.939 16.5032 214.714 16.0014 214.714 15.4472C214.714 14.8929 214.939 14.3911 215.302 14.0278C215.665 13.6646 216.167 13.4399 216.721 13.4399C217.275 13.4399 217.777 13.6646 218.14 14.0278C218.383 14.2703 218.564 14.5746 218.657 14.9149H226.828C226.793 11.2403 225.773 7.91023 223.335 5.43106C221.857 3.92827 219.852 2.72804 217.222 1.93941V6.45473C217.552 6.55011 217.846 6.72767 218.082 6.96378C218.446 7.32704 218.67 7.82886 218.67 8.3831C218.67 8.93731 218.446 9.43915 218.082 9.80242C217.719 10.1657 217.217 10.3904 216.663 10.3904C216.109 10.3904 215.607 10.1657 215.244 9.80242C214.881 9.43915 214.656 8.93731 214.656 8.3831C214.656 7.82886 214.881 7.32704 215.244 6.96378C215.486 6.72131 215.791 6.5406 216.131 6.44722V1.64469C215.167 1.41171 214.127 1.22934 213.007 1.10203C212.446 1.03815 211.913 1.3467 211.356 1.66909C210.808 1.98595 210.243 2.31337 209.546 2.43117V15.9344L215.717 22.3983C216.012 22.2273 216.355 22.1294 216.721 22.1294C217.275 22.1294 217.777 22.3541 218.14 22.7174C218.504 23.0806 218.728 23.5825 218.728 24.1367C218.728 24.6909 218.504 25.1927 218.14 25.556C217.777 25.9193 217.275 26.144 216.721 26.144C216.167 26.144 215.665 25.9193 215.302 25.556C214.939 25.1927 214.714 24.6909 214.714 24.1367C214.714 23.7897 214.802 23.4632 214.957 23.1784L209.009 16.9481L202.091 23.7448C201.876 23.9555 201.532 23.9526 201.321 23.7384C201.111 23.5242 201.113 23.1797 201.328 22.969L208.454 15.9672V2.42967C207.772 2.31066 207.208 1.98514 206.663 1.66963C206.104 1.34678 205.569 1.0371 205.022 1.0987C204.145 1.19758 203.316 1.33032 202.535 1.49458L202.537 10.3375L205.664 14.159C205.854 14.392 205.82 14.7356 205.587 14.9263C205.354 15.1169 205.01 15.0826 204.82 14.8495L201.994 11.3955L199.168 14.8495C198.978 15.0826 198.634 15.1169 198.401 14.9263C198.168 14.7356 198.134 14.392 198.324 14.159L201.45 10.3376L201.448 1.75094C198.49 2.52887 196.272 3.79899 194.672 5.42314C192.186 7.94726 191.171 11.3548 191.171 15.1104C191.171 15.3395 191.169 15.1523 191.17 15.2751V15.2772C191.17 15.2956 191.17 15.3149 191.17 15.335L195.009 19.064C195.224 19.2735 195.229 19.618 195.02 19.8334C194.81 20.0488 194.466 20.0536 194.25 19.8441L190.415 16.1184C187.583 17.2809 185.573 19.0283 184.231 21.1712C182.652 23.6939 181.984 26.7839 181.984 30.1281C181.984 31.7291 182.137 33.2719 182.471 34.7223L196.083 21.3461C196.297 21.1354 196.642 21.1382 196.853 21.3525C197.063 21.5667 197.06 21.9112 196.846 22.1219L191.509 27.3664L195.752 31.4872C195.968 31.6967 195.972 32.0412 195.763 32.2566C195.553 32.472 195.209 32.4768 194.993 32.2673L190.733 28.1293L182.796 35.9277C183.151 37.0586 183.628 38.1225 184.242 39.1009C185.599 41.2603 187.634 43.0163 190.504 44.1749L194.166 40.6186L189.963 36.5371C189.748 36.3276 189.743 35.9831 189.953 35.7677C190.162 35.5523 190.507 35.5475 190.722 35.757L194.935 39.8481L199.147 35.757ZM213.858 29.0242C213.605 29.0242 213.376 29.1267 213.21 29.2924C213.045 29.4581 212.942 29.6872 212.942 29.9402C212.942 30.1932 213.045 30.4222 213.21 30.588C213.376 30.7537 213.605 30.8562 213.858 30.8562C214.111 30.8562 214.34 30.7537 214.506 30.588C214.672 30.4222 214.774 30.1932 214.774 29.9402C214.774 29.6872 214.672 29.4581 214.506 29.2924C214.34 29.1267 214.111 29.0242 213.858 29.0242ZM228.758 33.0044C228.592 32.8387 228.363 32.7361 228.11 32.7361C227.857 32.7361 227.628 32.8387 227.462 33.0044C227.296 33.1701 227.194 33.3992 227.194 33.6522C227.194 33.9052 227.296 34.1342 227.462 34.3C227.628 34.4657 227.857 34.5682 228.11 34.5682C228.363 34.5682 228.592 34.4657 228.758 34.3C228.923 34.1342 229.026 33.9052 229.026 33.6522C229.026 33.3992 228.923 33.1701 228.758 33.0044ZM216.091 54.5392C216.257 54.3735 216.359 54.1444 216.359 53.8914C216.359 53.6384 216.257 53.4094 216.091 53.2436C215.925 53.0779 215.696 52.9754 215.443 52.9754C215.19 52.9754 214.961 53.0779 214.795 53.2436C214.63 53.4094 214.527 53.6384 214.527 53.8914C214.527 54.1444 214.63 54.3735 214.795 54.5392C214.961 54.7049 215.19 54.8074 215.443 54.8074C215.696 54.8074 215.925 54.7049 216.091 54.5392ZM218.708 45.5059C218.874 45.6717 219.103 45.7742 219.356 45.7742C219.609 45.7742 219.838 45.6717 220.003 45.5059C220.169 45.3402 220.272 45.1111 220.272 44.8581C220.272 44.6051 220.169 44.3761 220.003 44.2103C219.838 44.0446 219.609 43.9421 219.356 43.9421C219.103 43.9421 218.874 44.0446 218.708 44.2103C218.542 44.3761 218.44 44.6051 218.44 44.8581C218.44 45.1111 218.542 45.3402 218.708 45.5059ZM225.67 23.5832C225.504 23.4174 225.275 23.3149 225.022 23.3149C224.769 23.3149 224.54 23.4174 224.374 23.5832C224.208 23.7489 224.106 23.9779 224.106 24.231C224.106 24.484 224.208 24.713 224.374 24.8787C224.54 25.0445 224.769 25.147 225.022 25.147C225.275 25.147 225.504 25.0445 225.67 24.8787C225.835 24.713 225.938 24.484 225.938 24.231C225.938 23.9779 225.835 23.7489 225.67 23.5832ZM220.034 35.8279C219.869 35.6621 219.64 35.5596 219.387 35.5596C219.134 35.5596 218.904 35.6621 218.739 35.8279C218.573 35.9936 218.47 36.2226 218.47 36.4756C218.47 36.7287 218.573 36.9577 218.739 37.1234C218.904 37.2892 219.134 37.3917 219.387 37.3917C219.64 37.3917 219.869 37.2892 220.034 37.1234C220.2 36.9577 220.303 36.7287 220.303 36.4756C220.303 36.2226 220.2 35.9936 220.034 35.8279ZM217.369 23.4889C217.203 23.3232 216.974 23.2207 216.721 23.2207C216.468 23.2207 216.239 23.3232 216.073 23.4889C215.908 23.6546 215.805 23.8837 215.805 24.1367C215.805 24.3897 215.908 24.6187 216.073 24.7845C216.239 24.9502 216.468 25.0527 216.721 25.0527C216.974 25.0527 217.203 24.9502 217.369 24.7845C217.535 24.6187 217.637 24.3897 217.637 24.1367C217.637 23.8837 217.535 23.6546 217.369 23.4889ZM216.015 7.73532C215.85 7.90105 215.747 8.13008 215.747 8.3831C215.747 8.63611 215.85 8.86514 216.015 9.03089C216.181 9.19662 216.41 9.29914 216.663 9.29914C216.916 9.29914 217.145 9.19662 217.311 9.03089C217.477 8.86514 217.579 8.63611 217.579 8.3831C217.579 8.13008 217.477 7.90105 217.311 7.73532C217.145 7.56958 216.916 7.46706 216.663 7.46706C216.41 7.46706 216.181 7.56958 216.015 7.73532ZM217.369 14.7994C217.203 14.6336 216.974 14.5311 216.721 14.5311C216.468 14.5311 216.239 14.6336 216.073 14.7994C215.908 14.9651 215.805 15.1942 215.805 15.4472C215.805 15.7002 215.908 15.9292 216.073 16.095C216.239 16.2607 216.468 16.3632 216.721 16.3632C216.974 16.3632 217.203 16.2607 217.369 16.095C217.535 15.9292 217.637 15.7002 217.637 15.4472C217.637 15.1942 217.535 14.9651 217.369 14.7994Z" fill="#111111"/>
<path d="M208.783 90.2085C207.337 117.94 207.6 146.197 208.783 174.059C201.555 172.614 196.955 175.111 191.829 174.059C177.766 149.351 164.361 127.928 147.801 105.06L147.406 103.351L147.669 104.797C147.801 126.351 148.589 151.717 150.035 174.059C145.698 172.745 142.544 175.111 138.732 174.059C139.389 146.197 139.389 118.071 138.732 90.2085C144.515 89.2885 148.458 91.1284 155.686 90.2085C169.881 114.785 183.943 137.128 199.846 159.208L200.109 160.785L199.977 159.471C199.715 137.917 199.057 112.683 197.612 90.2085C202.08 91.2599 204.972 89.2885 208.783 90.2085ZM248.645 110.58C267.045 110.58 279.268 124.117 279.268 142.78C279.268 162.231 267.045 175.899 248.777 175.899C230.377 175.899 218.154 162.231 218.154 142.78C218.154 124.117 230.377 110.58 248.645 110.58ZM258.239 169.722C258.239 169.722 271.514 166.831 262.314 138.574C253.114 110.317 239.577 116.625 239.182 116.757C239.182 116.757 225.12 120.305 234.977 148.299C244.834 176.425 258.239 169.722 258.239 169.722Z" fill="#111111"/>
<path d="M160.29 204.052C162.894 203.983 169.713 204.326 169.713 210.768C169.713 216.456 164.779 219.334 159.639 219.334C158.816 219.334 157.788 219.3 156.726 219.197C156.726 221.664 156.76 224.063 156.829 226.256C155.15 225.879 154.122 226.564 152.786 226.256C153.231 218.82 153.334 212.241 152.786 204.6C155.664 204.566 158.097 204.052 160.29 204.052ZM159.365 217.895C162.449 217.895 165.327 216.216 165.327 211.316C165.327 206.827 162.688 205.491 159.536 205.491C158.885 205.491 157.891 205.491 156.829 205.594C156.726 209.671 156.726 213.818 156.726 217.792C157.754 217.861 158.679 217.895 159.365 217.895ZM170.751 226.256C171.025 220.842 171.094 216.73 170.751 211.282L171.608 210.185C171.573 213.509 174.075 214.811 174.075 214.811C174.52 212.276 176.371 209.706 179.215 209.706C181.271 209.706 183.087 210.802 183.087 213.646C183.087 214.16 182.95 215.222 182.95 215.222C182.196 215.154 179.523 216.422 179.523 216.422L179.283 216.353C180.208 215.565 179.968 211.762 177.638 211.727C175.582 211.727 174.966 214.126 174.76 217.929C174.623 220.431 174.657 223.275 174.794 226.256C172.944 226.393 172.362 225.879 170.751 226.256ZM191.663 209.706C196.46 209.706 199.647 213.235 199.647 218.101C199.647 223.172 196.46 226.736 191.698 226.736C186.9 226.736 183.714 223.172 183.714 218.101C183.714 213.235 186.9 209.706 191.663 209.706ZM194.165 225.125C194.165 225.125 197.625 224.371 195.227 217.004C192.828 209.637 189.299 211.282 189.196 211.316C189.196 211.316 185.53 212.241 188.1 219.54C190.67 226.873 194.165 225.125 194.165 225.125ZM205.688 228.757C205.688 233.006 201.508 234 199.28 234V232.629C200.96 233.349 201.782 231.327 201.782 228.757C201.782 222.521 201.85 216.387 201.713 210.185C203.735 210.014 204.215 210.494 205.757 210.185C205.62 216.387 205.688 222.521 205.688 228.757ZM201.919 204.052C204.489 203.195 204.729 204.669 205.414 204.052V206.896C203.118 207.478 202.501 206.416 201.919 206.896V204.052ZM222.557 221.39C223.379 221.733 224.407 221.699 224.407 221.699C223.825 224.851 221.186 226.736 217.486 226.736C212.38 226.736 209.194 223.138 209.194 218.066C209.194 213.167 212.346 209.74 217.177 209.74C221.598 209.74 224.407 212.653 224.27 217.827L213.442 219.334C213.545 223.104 214.642 225.571 217.52 225.571C218.925 225.571 220.878 224.954 220.878 222.624C220.878 222.178 220.912 221.287 220.193 221.356L220.672 221.082C220.672 221.082 221.769 221.048 222.557 221.39ZM213.408 218.683L220.124 216.833C220.261 215.942 220.33 215.257 220.33 214.229C220.364 211.899 219.268 210.562 217.349 210.905C215.19 211.316 213.545 214.743 213.408 218.683ZM236.548 220.122C238.09 220.602 239.803 219.437 240.899 220.739C240.899 220.739 240.077 226.736 233.464 226.736C228.735 226.736 225.548 223.138 225.548 218.169C225.548 213.269 228.735 209.808 233.464 209.808C237.199 209.808 240.146 212.001 240.762 215.36C240.762 215.36 236.342 216.353 234.732 217.141L236.616 213.406C236.513 211.693 235.006 211.008 233.875 211.008C231.305 211.008 229.763 213.646 229.763 218.204C229.763 222.727 231.305 225.571 233.841 225.571C234.971 225.571 236.856 224.44 236.856 222.144C236.856 221.493 236.856 220.431 236.068 220.397L236.548 220.122ZM243.617 211.659C243.103 211.659 242.246 211.727 241.663 211.727C241.526 211.111 241.835 210.734 241.663 210.288C242.349 210.288 243 210.357 243.617 210.357L243.582 207.067C245.159 207.307 245.021 205.834 247.454 205.834C247.249 207.547 247.283 208.643 247.249 210.357L251.326 210.288C251.258 210.699 251.395 211.145 251.326 211.727L247.249 211.659C247.214 215.805 247.317 219.711 247.386 221.767C247.454 223.926 247.763 225.159 248.756 225.159C249.442 225.159 250.059 224.44 250.059 223.617C250.059 223.378 250.059 223.138 249.784 222.864C250.401 223.104 250.984 222.692 251.566 223.138C251.566 225.571 250.161 226.736 247.797 226.736C244.919 226.736 243.411 225.228 243.411 221.767C243.411 218.718 243.788 215.565 243.617 211.659ZM258.841 225.502C260.862 225.502 261.719 224.44 261.719 223.378C261.719 221.801 260.143 220.397 258.258 219.403C255.825 218.135 252.536 216.97 252.536 214.126C252.536 211.727 254.626 209.706 258.635 209.706C261.582 209.706 264.186 210.836 265.043 211.59L263.33 214.914L262.987 214.88C264.255 213.132 261.719 210.939 258.704 210.939C256.579 210.939 255.997 211.933 255.997 212.824C255.997 214.469 257.71 215.839 259.937 217.004C262.165 218.204 265.214 219.334 265.214 222.007C265.214 224.611 262.576 226.736 258.567 226.736C255.62 226.736 253.084 225.571 251.885 224.44L253.495 220.602L253.838 220.705C252.57 222.761 255.928 225.502 258.841 225.502Z" fill="#111111"/>
</svg>
