<svg width="113" height="15" viewBox="0 0 113 15" fill="none" xmlns="http://www.w3.org/2000/svg">
<path d="M27.0723 2.75781V12H24.8506V2.75781H27.0723ZM36.8789 2.75781V12H34.6572L31.3882 6.24902V12H29.1601V2.75781H31.3882L34.6572 8.50879V2.75781H36.8789ZM46.2534 8.86426H43.9555V7.14404H46.2534C46.5665 7.14404 46.8204 7.09115 47.0151 6.98535C47.2097 6.87956 47.3515 6.73356 47.4404 6.54736C47.5335 6.35693 47.58 6.14323 47.58 5.90625C47.58 5.65234 47.5335 5.41748 47.4404 5.20166C47.3515 4.98584 47.2097 4.81234 47.0151 4.68115C46.8204 4.54574 46.5665 4.47803 46.2534 4.47803H44.7934V12H42.5654V2.75781H46.2534C46.9939 2.75781 47.6308 2.89323 48.164 3.16406C48.7014 3.4349 49.114 3.80729 49.4018 4.28125C49.6896 4.75098 49.8334 5.28841 49.8334 5.89355C49.8334 6.49023 49.6896 7.01074 49.4018 7.45508C49.114 7.89941 48.7014 8.24642 48.164 8.49609C47.6308 8.74154 46.9939 8.86426 46.2534 8.86426ZM51.5531 2.75781H55.1904C55.9013 2.75781 56.5191 2.86361 57.0439 3.0752C57.5686 3.28678 57.9727 3.59993 58.2563 4.01465C58.544 4.42936 58.6879 4.94141 58.6879 5.55078C58.6879 6.07975 58.6054 6.52197 58.4404 6.87744C58.2753 7.23291 58.0447 7.52702 57.7485 7.75977C57.4565 7.98828 57.1158 8.1766 56.7265 8.32471L55.9965 8.7373H52.9433L52.9306 7.01709H55.1904C55.4739 7.01709 55.7087 6.96631 55.8949 6.86475C56.0811 6.76318 56.2208 6.6193 56.3139 6.43311C56.4112 6.24268 56.4599 6.01628 56.4599 5.75391C56.4599 5.4873 56.4112 5.25879 56.3139 5.06836C56.2166 4.87793 56.0727 4.73193 55.8822 4.63037C55.696 4.52881 55.4654 4.47803 55.1904 4.47803H53.7812V12H51.5531V2.75781ZM56.6122 12L54.5683 7.91211L56.9296 7.89941L58.9989 11.9048V12H56.6122ZM68.3739 7.19482V7.56934C68.3739 8.27604 68.2745 8.91081 68.0756 9.47363C67.8809 10.0322 67.6037 10.5104 67.244 10.9082C66.8843 11.3018 66.459 11.6043 65.9682 11.8159C65.4773 12.0233 64.9356 12.127 64.3432 12.127C63.7465 12.127 63.2006 12.0233 62.7055 11.8159C62.2146 11.6043 61.7872 11.3018 61.4232 10.9082C61.0635 10.5104 60.7842 10.0322 60.5854 9.47363C60.3907 8.91081 60.2934 8.27604 60.2934 7.56934V7.19482C60.2934 6.48812 60.3907 5.85335 60.5854 5.29053C60.7842 4.7277 61.0614 4.24951 61.4169 3.85596C61.7766 3.45817 62.2019 3.1556 62.6928 2.94824C63.1879 2.73665 63.7338 2.63086 64.3305 2.63086C64.9229 2.63086 65.4646 2.73665 65.9555 2.94824C66.4506 3.1556 66.878 3.45817 67.2377 3.85596C67.5974 4.24951 67.8767 4.7277 68.0756 5.29053C68.2745 5.85335 68.3739 6.48812 68.3739 7.19482ZM66.1142 7.56934V7.18213C66.1142 6.7251 66.074 6.32308 65.9936 5.97607C65.9174 5.62484 65.8031 5.33073 65.6508 5.09375C65.4984 4.85677 65.3101 4.67904 65.0858 4.56055C64.8658 4.43783 64.614 4.37646 64.3305 4.37646C64.0342 4.37646 63.7761 4.43783 63.5561 4.56055C63.336 4.67904 63.1519 4.85677 63.0038 5.09375C62.8557 5.33073 62.7436 5.62484 62.6674 5.97607C62.5954 6.32308 62.5595 6.7251 62.5595 7.18213V7.56934C62.5595 8.02214 62.5954 8.42415 62.6674 8.77539C62.7436 9.1224 62.8557 9.4165 63.0038 9.65771C63.1562 9.89893 63.3423 10.0809 63.5624 10.2036C63.7867 10.3263 64.0469 10.3877 64.3432 10.3877C64.6267 10.3877 64.8785 10.3263 65.0985 10.2036C65.3186 10.0809 65.5027 9.89893 65.6508 9.65771C65.8031 9.4165 65.9174 9.1224 65.9936 8.77539C66.074 8.42415 66.1142 8.02214 66.1142 7.56934ZM77.6093 7.06152V10.8574C77.4527 11.0309 77.2115 11.2171 76.8856 11.416C76.564 11.6107 76.1578 11.7778 75.6669 11.9175C75.176 12.0571 74.5984 12.127 73.934 12.127C73.3204 12.127 72.7639 12.0296 72.2645 11.835C71.7652 11.6361 71.3357 11.3462 70.976 10.9653C70.6205 10.5802 70.3454 10.1105 70.1508 9.55615C69.9603 8.99756 69.8651 8.35856 69.8651 7.63916V7.125C69.8651 6.4056 69.9624 5.7666 70.1571 5.20801C70.3518 4.64941 70.6247 4.17969 70.976 3.79883C71.3314 3.41374 71.7483 3.12174 72.2264 2.92285C72.7089 2.72396 73.2378 2.62451 73.8134 2.62451C74.6639 2.62451 75.3558 2.75993 75.889 3.03076C76.4222 3.29736 76.8264 3.66764 77.1014 4.1416C77.3765 4.61133 77.5437 5.15511 77.6029 5.77295H75.4637C75.4214 5.46826 75.341 5.21012 75.2225 4.99854C75.1083 4.78271 74.9432 4.61979 74.7274 4.50977C74.5116 4.39551 74.2323 4.33838 73.8895 4.33838C73.6229 4.33838 73.3796 4.39551 73.1595 4.50977C72.9437 4.62402 72.7596 4.79753 72.6073 5.03027C72.455 5.25879 72.3365 5.54655 72.2518 5.89355C72.1714 6.24056 72.1312 6.64681 72.1312 7.1123V7.63916C72.1312 8.10042 72.1693 8.50456 72.2455 8.85156C72.3259 9.19857 72.4444 9.48844 72.601 9.72119C72.7618 9.94971 72.9649 10.1232 73.2103 10.2417C73.46 10.356 73.7541 10.4131 74.0927 10.4131C74.3296 10.4131 74.5328 10.394 74.702 10.356C74.8713 10.3136 75.0109 10.2629 75.121 10.2036C75.2352 10.1401 75.322 10.0809 75.3812 10.0259V8.59131H73.8324V7.06152H77.6093ZM79.4305 2.75781H83.0677C83.7787 2.75781 84.3965 2.86361 84.9212 3.0752C85.446 3.28678 85.8501 3.59993 86.1337 4.01465C86.4214 4.42936 86.5653 4.94141 86.5653 5.55078C86.5653 6.07975 86.4828 6.52197 86.3177 6.87744C86.1527 7.23291 85.9221 7.52702 85.6258 7.75977C85.3338 7.98828 84.9932 8.1766 84.6039 8.32471L83.8739 8.7373H80.8207L80.808 7.01709H83.0677C83.3513 7.01709 83.5861 6.96631 83.7723 6.86475C83.9585 6.76318 84.0982 6.6193 84.1913 6.43311C84.2886 6.24268 84.3373 6.01628 84.3373 5.75391C84.3373 5.4873 84.2886 5.25879 84.1913 5.06836C84.0939 4.87793 83.9501 4.73193 83.7596 4.63037C83.5734 4.52881 83.3428 4.47803 83.0677 4.47803H81.6586V12H79.4305V2.75781ZM84.4896 12L82.4457 7.91211L84.807 7.89941L86.8763 11.9048V12H84.4896ZM94.7913 10.2861V12H89.8656V10.2861H94.7913ZM90.659 2.75781V12H88.431V2.75781H90.659ZM94.1566 6.42676V8.0835H89.8656V6.42676H94.1566ZM94.8104 2.75781V4.47803H89.8656V2.75781H94.8104ZM100.986 9.54346C100.986 9.39958 100.965 9.27051 100.923 9.15625C100.88 9.03776 100.802 8.92773 100.688 8.82617C100.574 8.72461 100.409 8.62305 100.193 8.52148C99.9811 8.41569 99.7018 8.30566 99.3548 8.19141C98.9486 8.05599 98.5571 7.90365 98.1805 7.73438C97.8039 7.56087 97.4674 7.35986 97.1712 7.13135C96.875 6.8986 96.6401 6.62777 96.4666 6.31885C96.2931 6.0057 96.2064 5.64176 96.2064 5.22705C96.2064 4.82926 96.2952 4.47168 96.473 4.1543C96.6507 3.83268 96.8983 3.55973 97.2156 3.33545C97.5373 3.10693 97.9139 2.93343 98.3455 2.81494C98.7772 2.69222 99.249 2.63086 99.7611 2.63086C100.438 2.63086 101.035 2.74935 101.551 2.98633C102.072 3.21908 102.478 3.55127 102.77 3.98291C103.066 4.41032 103.214 4.91602 103.214 5.5H100.999C100.999 5.26725 100.95 5.06201 100.853 4.88428C100.76 4.70654 100.618 4.56689 100.428 4.46533C100.237 4.36377 99.998 4.31299 99.7103 4.31299C99.431 4.31299 99.1961 4.35531 99.0057 4.43994C98.8153 4.52458 98.6714 4.63883 98.574 4.78271C98.4767 4.92236 98.428 5.07682 98.428 5.24609C98.428 5.38574 98.4661 5.5127 98.5423 5.62695C98.6227 5.73698 98.7349 5.84066 98.8787 5.93799C99.0268 6.03532 99.2046 6.12842 99.4119 6.21729C99.6235 6.30615 99.8605 6.3929 100.123 6.47754C100.614 6.63411 101.05 6.80973 101.43 7.00439C101.816 7.19482 102.139 7.41276 102.402 7.6582C102.668 7.89941 102.869 8.17448 103.005 8.4834C103.144 8.79232 103.214 9.14144 103.214 9.53076C103.214 9.94548 103.134 10.3136 102.973 10.6353C102.812 10.9569 102.582 11.2298 102.281 11.4541C101.981 11.6742 101.621 11.8413 101.202 11.9556C100.783 12.0698 100.315 12.127 99.7991 12.127C99.3252 12.127 98.8576 12.0677 98.3963 11.9492C97.9393 11.8265 97.5246 11.6403 97.1522 11.3906C96.7798 11.1367 96.4814 10.813 96.2571 10.4194C96.0371 10.0216 95.9271 9.5498 95.9271 9.00391H98.1614C98.1614 9.27474 98.1974 9.50326 98.2694 9.68945C98.3413 9.87565 98.4471 10.0259 98.5867 10.1401C98.7264 10.2502 98.8978 10.3306 99.1009 10.3813C99.304 10.4279 99.5368 10.4512 99.7991 10.4512C100.083 10.4512 100.311 10.411 100.485 10.3306C100.658 10.2459 100.785 10.1359 100.866 10.0005C100.946 9.86084 100.986 9.7085 100.986 9.54346ZM109.644 9.54346C109.644 9.39958 109.623 9.27051 109.58 9.15625C109.538 9.03776 109.46 8.92773 109.346 8.82617C109.231 8.72461 109.066 8.62305 108.85 8.52148C108.639 8.41569 108.36 8.30566 108.012 8.19141C107.606 8.05599 107.215 7.90365 106.838 7.73438C106.462 7.56087 106.125 7.35986 105.829 7.13135C105.533 6.8986 105.298 6.62777 105.124 6.31885C104.951 6.0057 104.864 5.64176 104.864 5.22705C104.864 4.82926 104.953 4.47168 105.131 4.1543C105.308 3.83268 105.556 3.55973 105.873 3.33545C106.195 3.10693 106.572 2.93343 107.003 2.81494C107.435 2.69222 107.907 2.63086 108.419 2.63086C109.096 2.63086 109.693 2.74935 110.209 2.98633C110.729 3.21908 111.136 3.55127 111.428 3.98291C111.724 4.41032 111.872 4.91602 111.872 5.5H109.657C109.657 5.26725 109.608 5.06201 109.511 4.88428C109.417 4.70654 109.276 4.56689 109.085 4.46533C108.895 4.36377 108.656 4.31299 108.368 4.31299C108.089 4.31299 107.854 4.35531 107.663 4.43994C107.473 4.52458 107.329 4.63883 107.232 4.78271C107.134 4.92236 107.086 5.07682 107.086 5.24609C107.086 5.38574 107.124 5.5127 107.2 5.62695C107.28 5.73698 107.393 5.84066 107.536 5.93799C107.685 6.03532 107.862 6.12842 108.07 6.21729C108.281 6.30615 108.518 6.3929 108.781 6.47754C109.271 6.63411 109.707 6.80973 110.088 7.00439C110.473 7.19482 110.797 7.41276 111.059 7.6582C111.326 7.89941 111.527 8.17448 111.662 8.4834C111.802 8.79232 111.872 9.14144 111.872 9.53076C111.872 9.94548 111.791 10.3136 111.631 10.6353C111.47 10.9569 111.239 11.2298 110.939 11.4541C110.638 11.6742 110.279 11.8413 109.86 11.9556C109.441 12.0698 108.973 12.127 108.457 12.127C107.983 12.127 107.515 12.0677 107.054 11.9492C106.597 11.8265 106.182 11.6403 105.81 11.3906C105.437 11.1367 105.139 10.813 104.915 10.4194C104.695 10.0216 104.585 9.5498 104.585 9.00391H106.819C106.819 9.27474 106.855 9.50326 106.927 9.68945C106.999 9.87565 107.105 10.0259 107.244 10.1401C107.384 10.2502 107.555 10.3306 107.759 10.3813C107.962 10.4279 108.194 10.4512 108.457 10.4512C108.74 10.4512 108.969 10.411 109.142 10.3306C109.316 10.2459 109.443 10.1359 109.523 10.0005C109.604 9.86084 109.644 9.7085 109.644 9.54346Z" fill="black"/>
<ellipse cx="7" cy="7.5" rx="7" ry="7.5" fill="#FF9900"/>
</svg>
