<svg width="60" height="15" viewBox="0 0 60 15" fill="none" xmlns="http://www.w3.org/2000/svg">
<path d="M27.707 12H25.6567L25.6694 10.2861H27.707C28.1302 10.2861 28.4878 10.1846 28.7798 9.98145C29.076 9.77832 29.3003 9.47575 29.4526 9.07373C29.6092 8.66748 29.6875 8.16813 29.6875 7.57568V7.17578C29.6875 6.73145 29.6431 6.34212 29.5542 6.00781C29.4696 5.66927 29.3426 5.38786 29.1733 5.16357C29.0041 4.93506 28.7925 4.76367 28.5386 4.64941C28.2889 4.53516 28.0011 4.47803 27.6753 4.47803H25.6187V2.75781H27.6753C28.3016 2.75781 28.875 2.86572 29.3955 3.08154C29.9202 3.29313 30.373 3.59782 30.7539 3.99561C31.139 4.38916 31.4352 4.85677 31.6426 5.39844C31.8542 5.93587 31.96 6.53255 31.96 7.18848V7.57568C31.96 8.22738 31.8542 8.82406 31.6426 9.36572C31.4352 9.90739 31.1411 10.375 30.7603 10.7686C30.3794 11.1621 29.9287 11.4668 29.4082 11.6826C28.8919 11.8942 28.3249 12 27.707 12ZM26.9326 2.75781V12H24.7046V2.75781H26.9326ZM41.4619 7.19482V7.56934C41.4619 8.27604 41.3624 8.91081 41.1636 9.47363C40.9689 10.0322 40.6917 10.5104 40.332 10.9082C39.9723 11.3018 39.547 11.6043 39.0561 11.8159C38.5652 12.0233 38.0236 12.127 37.4311 12.127C36.8345 12.127 36.2886 12.0233 35.7934 11.8159C35.3026 11.6043 34.8751 11.3018 34.5112 10.9082C34.1515 10.5104 33.8722 10.0322 33.6733 9.47363C33.4787 8.91081 33.3813 8.27604 33.3813 7.56934V7.19482C33.3813 6.48812 33.4787 5.85335 33.6733 5.29053C33.8722 4.7277 34.1494 4.24951 34.5049 3.85596C34.8646 3.45817 35.2899 3.1556 35.7807 2.94824C36.2759 2.73665 36.8218 2.63086 37.4184 2.63086C38.0109 2.63086 38.5526 2.73665 39.0434 2.94824C39.5386 3.1556 39.966 3.45817 40.3257 3.85596C40.6854 4.24951 40.9647 4.7277 41.1636 5.29053C41.3624 5.85335 41.4619 6.48812 41.4619 7.19482ZM39.2021 7.56934V7.18213C39.2021 6.7251 39.1619 6.32308 39.0815 5.97607C39.0054 5.62484 38.8911 5.33073 38.7388 5.09375C38.5864 4.85677 38.3981 4.67904 38.1738 4.56055C37.9538 4.43783 37.702 4.37646 37.4184 4.37646C37.1222 4.37646 36.8641 4.43783 36.644 4.56055C36.424 4.67904 36.2399 4.85677 36.0918 5.09375C35.9437 5.33073 35.8315 5.62484 35.7554 5.97607C35.6834 6.32308 35.6474 6.7251 35.6474 7.18213V7.56934C35.6474 8.02214 35.6834 8.42415 35.7554 8.77539C35.8315 9.1224 35.9437 9.4165 36.0918 9.65771C36.2441 9.89893 36.4303 10.0809 36.6504 10.2036C36.8747 10.3263 37.1349 10.3877 37.4311 10.3877C37.7147 10.3877 37.9665 10.3263 38.1865 10.2036C38.4066 10.0809 38.5906 9.89893 38.7388 9.65771C38.8911 9.4165 39.0054 9.1224 39.0815 8.77539C39.1619 8.42415 39.2021 8.02214 39.2021 7.56934ZM50.8559 2.75781V12H48.6342L45.3652 6.24902V12H43.1372V2.75781H45.3652L48.6342 8.50879V2.75781H50.8559ZM59.1454 10.2861V12H54.2197V10.2861H59.1454ZM55.0131 2.75781V12H52.7851V2.75781H55.0131ZM58.5107 6.42676V8.0835H54.2197V6.42676H58.5107ZM59.1645 2.75781V4.47803H54.2197V2.75781H59.1645Z" fill="black"/>
<ellipse cx="7" cy="7.5" rx="7" ry="7.5" fill="#03D60C"/>
</svg>
