<svg width="60" height="15" viewBox="0 0 60 15" fill="none" xmlns="http://www.w3.org/2000/svg">
<path d="M29.1797 2.75781V12H26.9517V2.75781H29.1797ZM31.96 2.75781V4.47803H24.2349V2.75781H31.96ZM41.0683 7.19482V7.56934C41.0683 8.27604 40.9689 8.91081 40.77 9.47363C40.5753 10.0322 40.2982 10.5104 39.9385 10.9082C39.5788 11.3018 39.1535 11.6043 38.6626 11.8159C38.1717 12.0233 37.63 12.127 37.0376 12.127C36.4409 12.127 35.895 12.0233 35.3999 11.8159C34.909 11.6043 34.4816 11.3018 34.1177 10.9082C33.758 10.5104 33.4787 10.0322 33.2798 9.47363C33.0851 8.91081 32.9878 8.27604 32.9878 7.56934V7.19482C32.9878 6.48812 33.0851 5.85335 33.2798 5.29053C33.4787 4.7277 33.7558 4.24951 34.1113 3.85596C34.471 3.45817 34.8963 3.1556 35.3872 2.94824C35.8823 2.73665 36.4282 2.63086 37.0249 2.63086C37.6173 2.63086 38.159 2.73665 38.6499 2.94824C39.145 3.1556 39.5724 3.45817 39.9321 3.85596C40.2918 4.24951 40.5711 4.7277 40.77 5.29053C40.9689 5.85335 41.0683 6.48812 41.0683 7.19482ZM38.8086 7.56934V7.18213C38.8086 6.7251 38.7684 6.32308 38.688 5.97607C38.6118 5.62484 38.4975 5.33073 38.3452 5.09375C38.1929 4.85677 38.0045 4.67904 37.7803 4.56055C37.5602 4.43783 37.3084 4.37646 37.0249 4.37646C36.7287 4.37646 36.4705 4.43783 36.2505 4.56055C36.0304 4.67904 35.8463 4.85677 35.6982 5.09375C35.5501 5.33073 35.438 5.62484 35.3618 5.97607C35.2899 6.32308 35.2539 6.7251 35.2539 7.18213V7.56934C35.2539 8.02214 35.2899 8.42415 35.3618 8.77539C35.438 9.1224 35.5501 9.4165 35.6982 9.65771C35.8506 9.89893 36.0368 10.0809 36.2568 10.2036C36.4811 10.3263 36.7414 10.3877 37.0376 10.3877C37.3211 10.3877 37.5729 10.3263 37.7929 10.2036C38.013 10.0809 38.1971 9.89893 38.3452 9.65771C38.4975 9.4165 38.6118 9.1224 38.688 8.77539C38.7684 8.42415 38.8086 8.02214 38.8086 7.56934ZM45.7461 12H43.6958L43.7085 10.2861H45.7461C46.1692 10.2861 46.5268 10.1846 46.8188 9.98145C47.115 9.77832 47.3393 9.47575 47.4917 9.07373C47.6482 8.66748 47.7265 8.16813 47.7265 7.57568V7.17578C47.7265 6.73145 47.6821 6.34212 47.5932 6.00781C47.5086 5.66927 47.3816 5.38786 47.2124 5.16357C47.0431 4.93506 46.8315 4.76367 46.5776 4.64941C46.3279 4.53516 46.0402 4.47803 45.7143 4.47803H43.6577V2.75781H45.7143C46.3406 2.75781 46.914 2.86572 47.4345 3.08154C47.9593 3.29313 48.4121 3.59782 48.7929 3.99561C49.178 4.38916 49.4742 4.85677 49.6816 5.39844C49.8932 5.93587 49.999 6.53255 49.999 7.18848V7.57568C49.999 8.22738 49.8932 8.82406 49.6816 9.36572C49.4742 9.90739 49.1801 10.375 48.7993 10.7686C48.4184 11.1621 47.9677 11.4668 47.4472 11.6826C46.931 11.8942 46.3639 12 45.7461 12ZM44.9716 2.75781V12H42.7436V2.75781H44.9716ZM59.5009 7.19482V7.56934C59.5009 8.27604 59.4015 8.91081 59.2026 9.47363C59.0079 10.0322 58.7307 10.5104 58.371 10.9082C58.0113 11.3018 57.586 11.6043 57.0952 11.8159C56.6043 12.0233 56.0626 12.127 55.4702 12.127C54.8735 12.127 54.3276 12.0233 53.8325 11.8159C53.3416 11.6043 52.9142 11.3018 52.5502 10.9082C52.1905 10.5104 51.9112 10.0322 51.7123 9.47363C51.5177 8.91081 51.4204 8.27604 51.4204 7.56934V7.19482C51.4204 6.48812 51.5177 5.85335 51.7123 5.29053C51.9112 4.7277 52.1884 4.24951 52.5439 3.85596C52.9036 3.45817 53.3289 3.1556 53.8198 2.94824C54.3149 2.73665 54.8608 2.63086 55.4575 2.63086C56.0499 2.63086 56.5916 2.73665 57.0825 2.94824C57.5776 3.1556 58.005 3.45817 58.3647 3.85596C58.7244 4.24951 59.0037 4.7277 59.2026 5.29053C59.4015 5.85335 59.5009 6.48812 59.5009 7.19482ZM57.2412 7.56934V7.18213C57.2412 6.7251 57.2009 6.32308 57.1205 5.97607C57.0444 5.62484 56.9301 5.33073 56.7778 5.09375C56.6254 4.85677 56.4371 4.67904 56.2128 4.56055C55.9928 4.43783 55.741 4.37646 55.4575 4.37646C55.1612 4.37646 54.9031 4.43783 54.683 4.56055C54.463 4.67904 54.2789 4.85677 54.1308 5.09375C53.9827 5.33073 53.8705 5.62484 53.7944 5.97607C53.7224 6.32308 53.6865 6.7251 53.6865 7.18213V7.56934C53.6865 8.02214 53.7224 8.42415 53.7944 8.77539C53.8705 9.1224 53.9827 9.4165 54.1308 9.65771C54.2831 9.89893 54.4693 10.0809 54.6894 10.2036C54.9137 10.3263 55.1739 10.3877 55.4702 10.3877C55.7537 10.3877 56.0055 10.3263 56.2255 10.2036C56.4456 10.0809 56.6297 9.89893 56.7778 9.65771C56.9301 9.4165 57.0444 9.1224 57.1205 8.77539C57.2009 8.42415 57.2412 8.02214 57.2412 7.56934Z" fill="black"/>
<ellipse cx="7" cy="7.5" rx="7" ry="7.5" fill="#A1A1A1"/>
</svg>
